ply
format ascii 1.0
element vertex 362
property float x
property float y
property float z
element face 720
property list uchar int vertex_indices
end_header
0.000000 0.000000 0.500000
0.000000 0.000000 -0.500000
0.082297 0.000000 0.493181
0.162350 0.000000 0.472909
0.237974 0.000000 0.439737
0.307106 0.000000 0.394570
0.367862 0.000000 0.338641
0.418583 0.000000 0.273474
0.457887 0.000000 0.200848
0.484700 0.000000 0.122743
0.498292 0.000000 0.041290
0.498292 0.000000 -0.041290
0.484700 0.000000 -0.122743
0.457887 0.000000 -0.200848
0.418583 0.000000 -0.273474
0.367862 0.000000 -0.338641
0.307106 0.000000 -0.394570
0.237974 0.000000 -0.439737
0.162350 0.000000 -0.472909
0.082297 0.000000 -0.493181
0.078269 0.025431 0.493181
0.154404 0.050169 0.472909
0.226326 0.073538 0.439737
0.292076 0.094901 0.394570
0.349858 0.113676 0.338641
0.398096 0.129349 0.273474
0.435476 0.141495 0.200848
0.460977 0.149781 0.122743
0.473904 0.153981 0.041290
0.473904 0.153981 -0.041290
0.460977 0.149781 -0.122743
0.435476 0.141495 -0.200848
0.398096 0.129349 -0.273474
0.349858 0.113676 -0.338641
0.292076 0.094901 -0.394570
0.226326 0.073538 -0.439737
0.154404 0.050169 -0.472909
0.078269 0.025431 -0.493181
0.066580 0.048373 0.493181
0.131344 0.095427 0.472909
0.192525 0.139877 0.439737
0.248454 0.180513 0.394570
0.297607 0.216224 0.338641
0.338641 0.246037 0.273474
0.370438 0.269139 0.200848
0.392131 0.284900 0.122743
0.403127 0.292889 0.041290
0.403127 0.292889 -0.041290
0.392131 0.284900 -0.122743
0.370438 0.269139 -0.200848
0.338641 0.246037 -0.273474
0.297607 0.216224 -0.338641
0.248454 0.180513 -0.394570
0.192525 0.139877 -0.439737
0.131344 0.095427 -0.472909
0.066580 0.048373 -0.493181
0.048373 0.066580 0.493181
0.095427 0.131344 0.472909
0.139877 0.192525 0.439737
0.180513 0.248454 0.394570
0.216224 0.297607 0.338641
0.246037 0.338641 0.273474
0.269139 0.370438 0.200848
0.284900 0.392131 0.122743
0.292889 0.403127 0.041290
0.292889 0.403127 -0.041290
0.284900 0.392131 -0.122743
0.269139 0.370438 -0.200848
0.246037 0.338641 -0.273474
0.216224 0.297607 -0.338641
0.180513 0.248454 -0.394570
0.139877 0.192525 -0.439737
0.095427 0.131344 -0.472909
0.048373 0.066580 -0.493181
0.025431 0.078269 0.493181
0.050169 0.154404 0.472909
0.073538 0.226326 0.439737
0.094901 0.292076 0.394570
0.113676 0.349858 0.338641
0.129349 0.398096 0.273474
0.141495 0.435476 0.200848
0.149781 0.460977 0.122743
0.153981 0.473904 0.041290
0.153981 0.473904 -0.041290
0.149781 0.460977 -0.122743
0.141495 0.435476 -0.200848
0.129349 0.398096 -0.273474
0.113676 0.349858 -0.338641
0.094901 0.292076 -0.394570
0.073538 0.226326 -0.439737
0.050169 0.154404 -0.472909
0.025431 0.078269 -0.493181
-0.000000 0.082297 0.493181
-0.000000 0.162350 0.472909
-0.000000 0.237974 0.439737
-0.000000 0.307106 0.394570
-0.000000 0.367862 0.338641
-0.000000 0.418583 0.273474
-0.000000 0.457887 0.200848
-0.000000 0.484700 0.122743
-0.000000 0.498292 0.041290
-0.000000 0.498292 -0.041290
-0.000000 0.484700 -0.122743
-0.000000 0.457887 -0.200848
-0.000000 0.418583 -0.273474
-0.000000 0.367862 -0.338641
-0.000000 0.307106 -0.394570
-0.000000 0.237974 -0.439737
-0.000000 0.162350 -0.472909
-0.000000 0.082297 -0.493181
-0.025431 0.078269 0.493181
-0.050169 0.154404 0.472909
-0.073538 0.226326 0.439737
-0.094901 0.292076 0.394570
-0.113676 0.349858 0.338641
-0.129349 0.398096 0.273474
-0.141495 0.435476 0.200848
-0.149781 0.460977 0.122743
-0.153981 0.473904 0.041290
-0.153981 0.473904 -0.041290
-0.149781 0.460977 -0.122743
-0.141495 0.435476 -0.200848
-0.129349 0.398096 -0.273474
-0.113676 0.349858 -0.338641
-0.094901 0.292076 -0.394570
-0.073538 0.226326 -0.439737
-0.050169 0.154404 -0.472909
-0.025431 0.078269 -0.493181
-0.048373 0.066580 0.493181
-0.095427 0.131344 0.472909
-0.139877 0.192525 0.439737
-0.180513 0.248454 0.394570
-0.216224 0.297607 0.338641
-0.246037 0.338641 0.273474
-0.269139 0.370438 0.200848
-0.284900 0.392131 0.122743
-0.292889 0.403127 0.041290
-0.292889 0.403127 -0.041290
-0.284900 0.392131 -0.122743
-0.269139 0.370438 -0.200848
-0.246037 0.338641 -0.273474
-0.216224 0.297607 -0.338641
-0.180513 0.248454 -0.394570
-0.139877 0.192525 -0.439737
-0.095427 0.131344 -0.472909
-0.048373 0.066580 -0.493181
-0.066580 0.048373 0.493181
-0.131344 0.095427 0.472909
-0.192525 0.139877 0.439737
-0.248454 0.180513 0.394570
-0.297607 0.216224 0.338641
-0.338641 0.246037 0.273474
-0.370438 0.269139 0.200848
-0.392131 0.284900 0.122743
-0.403127 0.292889 0.041290
-0.403127 0.292889 -0.041290
-0.392131 0.284900 -0.122743
-0.370438 0.269139 -0.200848
-0.338641 0.246037 -0.273474
-0.297607 0.216224 -0.338641
-0.248454 0.180513 -0.394570
-0.192525 0.139877 -0.439737
-0.131344 0.095427 -0.472909
-0.066580 0.048373 -0.493181
-0.078269 0.025431 0.493181
-0.154404 0.050169 0.472909
-0.226326 0.073538 0.439737
-0.292076 0.094901 0.394570
-0.349858 0.113676 0.338641
-0.398096 0.129349 0.273474
-0.435476 0.141495 0.200848
-0.460977 0.149781 0.122743
-0.473904 0.153981 0.041290
-0.473904 0.153981 -0.041290
-0.460977 0.149781 -0.122743
-0.435476 0.141495 -0.200848
-0.398096 0.129349 -0.273474
-0.349858 0.113676 -0.338641
-0.292076 0.094901 -0.394570
-0.226326 0.073538 -0.439737
-0.154404 0.050169 -0.472909
-0.078269 0.025431 -0.493181
-0.082297 -0.000000 0.493181
-0.162350 -0.000000 0.472909
-0.237974 -0.000000 0.439737
-0.307106 -0.000000 0.394570
-0.367862 -0.000000 0.338641
-0.418583 -0.000000 0.273474
-0.457887 -0.000000 0.200848
-0.484700 -0.000000 0.122743
-0.498292 -0.000000 0.041290
-0.498292 -0.000000 -0.041290
-0.484700 -0.000000 -0.122743
-0.457887 -0.000000 -0.200848
-0.418583 -0.000000 -0.273474
-0.367862 -0.000000 -0.338641
-0.307106 -0.000000 -0.394570
-0.237974 -0.000000 -0.439737
-0.162350 -0.000000 -0.472909
-0.082297 -0.000000 -0.493181
-0.078269 -0.025431 0.493181
-0.154404 -0.050169 0.472909
-0.226326 -0.073538 0.439737
-0.292076 -0.094901 0.394570
-0.349858 -0.113676 0.338641
-0.398096 -0.129349 0.273474
-0.435476 -0.141495 0.200848
-0.460977 -0.149781 0.122743
-0.473904 -0.153981 0.041290
-0.473904 -0.153981 -0.041290
-0.460977 -0.149781 -0.122743
-0.435476 -0.141495 -0.200848
-0.398096 -0.129349 -0.273474
-0.349858 -0.113676 -0.338641
-0.292076 -0.094901 -0.394570
-0.226326 -0.073538 -0.439737
-0.154404 -0.050169 -0.472909
-0.078269 -0.025431 -0.493181
-0.066580 -0.048373 0.493181
-0.131344 -0.095427 0.472909
-0.192525 -0.139877 0.439737
-0.248454 -0.180513 0.394570
-0.297607 -0.216224 0.338641
-0.338641 -0.246037 0.273474
-0.370438 -0.269139 0.200848
-0.392131 -0.284900 0.122743
-0.403127 -0.292889 0.041290
-0.403127 -0.292889 -0.041290
-0.392131 -0.284900 -0.122743
-0.370438 -0.269139 -0.200848
-0.338641 -0.246037 -0.273474
-0.297607 -0.216224 -0.338641
-0.248454 -0.180513 -0.394570
-0.192525 -0.139877 -0.439737
-0.131344 -0.095427 -0.472909
-0.066580 -0.048373 -0.493181
-0.048373 -0.066580 0.493181
-0.095427 -0.131344 0.472909
-0.139877 -0.192525 0.439737
-0.180513 -0.248454 0.394570
-0.216224 -0.297607 0.338641
-0.246037 -0.338641 0.273474
-0.269139 -0.370438 0.200848
-0.284900 -0.392131 0.122743
-0.292889 -0.403127 0.041290
-0.292889 -0.403127 -0.041290
-0.284900 -0.392131 -0.122743
-0.269139 -0.370438 -0.200848
-0.246037 -0.338641 -0.273474
-0.216224 -0.297607 -0.338641
-0.180513 -0.248454 -0.394570
-0.139877 -0.192525 -0.439737
-0.095427 -0.131344 -0.472909
-0.048373 -0.066580 -0.493181
-0.025431 -0.078269 0.493181
-0.050169 -0.154404 0.472909
-0.073538 -0.226326 0.439737
-0.094901 -0.292076 0.394570
-0.113676 -0.349858 0.338641
-0.129349 -0.398096 0.273474
-0.141495 -0.435476 0.200848
-0.149781 -0.460977 0.122743
-0.153981 -0.473904 0.041290
-0.153981 -0.473904 -0.041290
-0.149781 -0.460977 -0.122743
-0.141495 -0.435476 -0.200848
-0.129349 -0.398096 -0.273474
-0.113676 -0.349858 -0.338641
-0.094901 -0.292076 -0.394570
-0.073538 -0.226326 -0.439737
-0.050169 -0.154404 -0.472909
-0.025431 -0.078269 -0.493181
0.000000 -0.082297 0.493181
0.000000 -0.162350 0.472909
0.000000 -0.237974 0.439737
0.000000 -0.307106 0.394570
0.000000 -0.367862 0.338641
0.000000 -0.418583 0.273474
0.000000 -0.457887 0.200848
0.000000 -0.484700 0.122743
0.000000 -0.498292 0.041290
0.000000 -0.498292 -0.041290
0.000000 -0.484700 -0.122743
0.000000 -0.457887 -0.200848
0.000000 -0.418583 -0.273474
0.000000 -0.367862 -0.338641
0.000000 -0.307106 -0.394570
0.000000 -0.237974 -0.439737
0.000000 -0.162350 -0.472909
0.000000 -0.082297 -0.493181
0.025431 -0.078269 0.493181
0.050169 -0.154404 0.472909
0.073538 -0.226326 0.439737
0.094901 -0.292076 0.394570
0.113676 -0.349858 0.338641
0.129349 -0.398096 0.273474
0.141495 -0.435476 0.200848
0.149781 -0.460977 0.122743
0.153981 -0.473904 0.041290
0.153981 -0.473904 -0.041290
0.149781 -0.460977 -0.122743
0.141495 -0.435476 -0.200848
0.129349 -0.398096 -0.273474
0.113676 -0.349858 -0.338641
0.094901 -0.292076 -0.394570
0.073538 -0.226326 -0.439737
0.050169 -0.154404 -0.472909
0.025431 -0.078269 -0.493181
0.048373 -0.066580 0.493181
0.095427 -0.131344 0.472909
0.139877 -0.192525 0.439737
0.180513 -0.248454 0.394570
0.216224 -0.297607 0.338641
0.246037 -0.338641 0.273474
0.269139 -0.370438 0.200848
0.284900 -0.392131 0.122743
0.292889 -0.403127 0.041290
0.292889 -0.403127 -0.041290
0.284900 -0.392131 -0.122743
0.269139 -0.370438 -0.200848
0.246037 -0.338641 -0.273474
0.216224 -0.297607 -0.338641
0.180513 -0.248454 -0.394570
0.139877 -0.192525 -0.439737
0.095427 -0.131344 -0.472909
0.048373 -0.066580 -0.493181
0.066580 -0.048373 0.493181
0.131344 -0.095427 0.472909
0.192525 -0.139877 0.439737
0.248454 -0.180513 0.394570
0.297607 -0.216224 0.338641
0.338641 -0.246037 0.273474
0.370438 -0.269139 0.200848
0.392131 -0.284900 0.122743
0.403127 -0.292889 0.041290
0.403127 -0.292889 -0.041290
0.392131 -0.284900 -0.122743
0.370438 -0.269139 -0.200848
0.338641 -0.246037 -0.273474
0.297607 -0.216224 -0.338641
0.248454 -0.180513 -0.394570
0.192525 -0.139877 -0.439737
0.131344 -0.095427 -0.472909
0.066580 -0.048373 -0.493181
0.078269 -0.025431 0.493181
0.154404 -0.050169 0.472909
0.226326 -0.073538 0.439737
0.292076 -0.094901 0.394570
0.349858 -0.113676 0.338641
0.398096 -0.129349 0.273474
0.435476 -0.141495 0.200848
0.460977 -0.149781 0.122743
0.473904 -0.153981 0.041290
0.473904 -0.153981 -0.041290
0.460977 -0.149781 -0.122743
0.435476 -0.141495 -0.200848
0.398096 -0.129349 -0.273474
0.349858 -0.113676 -0.338641
0.292076 -0.094901 -0.394570
0.226326 -0.073538 -0.439737
0.154404 -0.050169 -0.472909
0.078269 -0.025431 -0.493181
3 2 20 0
3 20 38 0
3 38 56 0
3 56 74 0
3 74 92 0
3 92 110 0
3 110 128 0
3 128 146 0
3 146 164 0
3 164 182 0
3 182 200 0
3 200 218 0
3 218 236 0
3 236 254 0
3 254 272 0
3 272 290 0
3 290 308 0
3 308 326 0
3 326 344 0
3 344 2 0
3 19 1 37
3 37 1 55
3 55 1 73
3 73 1 91
3 91 1 109
3 109 1 127
3 127 1 145
3 145 1 163
3 163 1 181
3 181 1 199
3 199 1 217
3 217 1 235
3 235 1 253
3 253 1 271
3 271 1 289
3 289 1 307
3 307 1 325
3 325 1 343
3 343 1 361
3 361 1 19
3 2 3 21
3 2 21 20
3 3 4 22
3 3 22 21
3 4 5 23
3 4 23 22
3 5 6 24
3 5 24 23
3 6 7 25
3 6 25 24
3 7 8 26
3 7 26 25
3 8 9 27
3 8 27 26
3 9 10 28
3 9 28 27
3 10 11 29
3 10 29 28
3 11 12 30
3 11 30 29
3 12 13 31
3 12 31 30
3 13 14 32
3 13 32 31
3 14 15 33
3 14 33 32
3 15 16 34
3 15 34 33
3 16 17 35
3 16 35 34
3 17 18 36
3 17 36 35
3 18 19 37
3 18 37 36
3 20 21 39
3 20 39 38
3 21 22 40
3 21 40 39
3 22 23 41
3 22 41 40
3 23 24 42
3 23 42 41
3 24 25 43
3 24 43 42
3 25 26 44
3 25 44 43
3 26 27 45
3 26 45 44
3 27 28 46
3 27 46 45
3 28 29 47
3 28 47 46
3 29 30 48
3 29 48 47
3 30 31 49
3 30 49 48
3 31 32 50
3 31 50 49
3 32 33 51
3 32 51 50
3 33 34 52
3 33 52 51
3 34 35 53
3 34 53 52
3 35 36 54
3 35 54 53
3 36 37 55
3 36 55 54
3 38 39 57
3 38 57 56
3 39 40 58
3 39 58 57
3 40 41 59
3 40 59 58
3 41 42 60
3 41 60 59
3 42 43 61
3 42 61 60
3 43 44 62
3 43 62 61
3 44 45 63
3 44 63 62
3 45 46 64
3 45 64 63
3 46 47 65
3 46 65 64
3 47 48 66
3 47 66 65
3 48 49 67
3 48 67 66
3 49 50 68
3 49 68 67
3 50 51 69
3 50 69 68
3 51 52 70
3 51 70 69
3 52 53 71
3 52 71 70
3 53 54 72
3 53 72 71
3 54 55 73
3 54 73 72
3 56 57 75
3 56 75 74
3 57 58 76
3 57 76 75
3 58 59 77
3 58 77 76
3 59 60 78
3 59 78 77
3 60 61 79
3 60 79 78
3 61 62 80
3 61 80 79
3 62 63 81
3 62 81 80
3 63 64 82
3 63 82 81
3 64 65 83
3 64 83 82
3 65 66 84
3 65 84 83
3 66 67 85
3 66 85 84
3 67 68 86
3 67 86 85
3 68 69 87
3 68 87 86
3 69 70 88
3 69 88 87
3 70 71 89
3 70 89 88
3 71 72 90
3 71 90 89
3 72 73 91
3 72 91 90
3 74 75 93
3 74 93 92
3 75 76 94
3 75 94 93
3 76 77 95
3 76 95 94
3 77 78 96
3 77 96 95
3 78 79 97
3 78 97 96
3 79 80 98
3 79 98 97
3 80 81 99
3 80 99 98
3 81 82 100
3 81 100 99
3 82 83 101
3 82 101 100
3 83 84 102
3 83 102 101
3 84 85 103
3 84 103 102
3 85 86 104
3 85 104 103
3 86 87 105
3 86 105 104
3 87 88 106
3 87 106 105
3 88 89 107
3 88 107 106
3 89 90 108
3 89 108 107
3 90 91 109
3 90 109 108
3 92 93 111
3 92 111 110
3 93 94 112
3 93 112 111
3 94 95 113
3 94 113 112
3 95 96 114
3 95 114 113
3 96 97 115
3 96 115 114
3 97 98 116
3 97 116 115
3 98 99 117
3 98 117 116
3 99 100 118
3 99 118 117
3 100 101 119
3 100 119 118
3 101 102 120
3 101 120 119
3 102 103 121
3 102 121 120
3 103 104 122
3 103 122 121
3 104 105 123
3 104 123 122
3 105 106 124
3 105 124 123
3 106 107 125
3 106 125 124
3 107 108 126
3 107 126 125
3 108 109 127
3 108 127 126
3 110 111 129
3 110 129 128
3 111 112 130
3 111 130 129
3 112 113 131
3 112 131 130
3 113 114 132
3 113 132 131
3 114 115 133
3 114 133 132
3 115 116 134
3 115 134 133
3 116 117 135
3 116 135 134
3 117 118 136
3 117 136 135
3 118 119 137
3 118 137 136
3 119 120 138
3 119 138 137
3 120 121 139
3 120 139 138
3 121 122 140
3 121 140 139
3 122 123 141
3 122 141 140
3 123 124 142
3 123 142 141
3 124 125 143
3 124 143 142
3 125 126 144
3 125 144 143
3 126 127 145
3 126 145 144
3 128 129 147
3 128 147 146
3 129 130 148
3 129 148 147
3 130 131 149
3 130 149 148
3 131 132 150
3 131 150 149
3 132 133 151
3 132 151 150
3 133 134 152
3 133 152 151
3 134 135 153
3 134 153 152
3 135 136 154
3 135 154 153
3 136 137 155
3 136 155 154
3 137 138 156
3 137 156 155
3 138 139 157
3 138 157 156
3 139 140 158
3 139 158 157
3 140 141 159
3 140 159 158
3 141 142 160
3 141 160 159
3 142 143 161
3 142 161 160
3 143 144 162
3 143 162 161
3 144 145 163
3 144 163 162
3 146 147 165
3 146 165 164
3 147 148 166
3 147 166 165
3 148 149 167
3 148 167 166
3 149 150 168
3 149 168 167
3 150 151 169
3 150 169 168
3 151 152 170
3 151 170 169
3 152 153 171
3 152 171 170
3 153 154 172
3 153 172 171
3 154 155 173
3 154 173 172
3 155 156 174
3 155 174 173
3 156 157 175
3 156 175 174
3 157 158 176
3 157 176 175
3 158 159 177
3 158 177 176
3 159 160 178
3 159 178 177
3 160 161 179
3 160 179 178
3 161 162 180
3 161 180 179
3 162 163 181
3 162 181 180
3 164 165 183
3 164 183 182
3 165 166 184
3 165 184 183
3 166 167 185
3 166 185 184
3 167 168 186
3 167 186 185
3 168 169 187
3 168 187 186
3 169 170 188
3 169 188 187
3 170 171 189
3 170 189 188
3 171 172 190
3 171 190 189
3 172 173 191
3 172 191 190
3 173 174 192
3 173 192 191
3 174 175 193
3 174 193 192
3 175 176 194
3 175 194 193
3 176 177 195
3 176 195 194
3 177 178 196
3 177 196 195
3 178 179 197
3 178 197 196
3 179 180 198
3 179 198 197
3 180 181 199
3 180 199 198
3 182 183 201
3 182 201 200
3 183 184 202
3 183 202 201
3 184 185 203
3 184 203 202
3 185 186 204
3 185 204 203
3 186 187 205
3 186 205 204
3 187 188 206
3 187 206 205
3 188 189 207
3 188 207 206
3 189 190 208
3 189 208 207
3 190 191 209
3 190 209 208
3 191 192 210
3 191 210 209
3 192 193 211
3 192 211 210
3 193 194 212
3 193 212 211
3 194 195 213
3 194 213 212
3 195 196 214
3 195 214 213
3 196 197 215
3 196 215 214
3 197 198 216
3 197 216 215
3 198 199 217
3 198 217 216
3 200 201 219
3 200 219 218
3 201 202 220
3 201 220 219
3 202 203 221
3 202 221 220
3 203 204 222
3 203 222 221
3 204 205 223
3 204 223 222
3 205 206 224
3 205 224 223
3 206 207 225
3 206 225 224
3 207 208 226
3 207 226 225
3 208 209 227
3 208 227 226
3 209 210 228
3 209 228 227
3 210 211 229
3 210 229 228
3 211 212 230
3 211 230 229
3 212 213 231
3 212 231 230
3 213 214 232
3 213 232 231
3 214 215 233
3 214 233 232
3 215 216 234
3 215 234 233
3 216 217 235
3 216 235 234
3 218 219 237
3 218 237 236
3 219 220 238
3 219 238 237
3 220 221 239
3 220 239 238
3 221 222 240
3 221 240 239
3 222 223 241
3 222 241 240
3 223 224 242
3 223 242 241
3 224 225 243
3 224 243 242
3 225 226 244
3 225 244 243
3 226 227 245
3 226 245 244
3 227 228 246
3 227 246 245
3 228 229 247
3 228 247 246
3 229 230 248
3 229 248 247
3 230 231 249
3 230 249 248
3 231 232 250
3 231 250 249
3 232 233 251
3 232 251 250
3 233 234 252
3 233 252 251
3 234 235 253
3 234 253 252
3 236 237 255
3 236 255 254
3 237 238 256
3 237 256 255
3 238 239 257
3 238 257 256
3 239 240 258
3 239 258 257
3 240 241 259
3 240 259 258
3 241 242 260
3 241 260 259
3 242 243 261
3 242 261 260
3 243 244 262
3 243 262 261
3 244 245 263
3 244 263 262
3 245 246 264
3 245 264 263
3 246 247 265
3 246 265 264
3 247 248 266
3 247 266 265
3 248 249 267
3 248 267 266
3 249 250 268
3 249 268 267
3 250 251 269
3 250 269 268
3 251 252 270
3 251 270 269
3 252 253 271
3 252 271 270
3 254 255 273
3 254 273 272
3 255 256 274
3 255 274 273
3 256 257 275
3 256 275 274
3 257 258 276
3 257 276 275
3 258 259 277
3 258 277 276
3 259 260 278
3 259 278 277
3 260 261 279
3 260 279 278
3 261 262 280
3 261 280 279
3 262 263 281
3 262 281 280
3 263 264 282
3 263 282 281
3 264 265 283
3 264 283 282
3 265 266 284
3 265 284 283
3 266 267 285
3 266 285 284
3 267 268 286
3 267 286 285
3 268 269 287
3 268 287 286
3 269 270 288
3 269 288 287
3 270 271 289
3 270 289 288
3 272 273 291
3 272 291 290
3 273 274 292
3 273 292 291
3 274 275 293
3 274 293 292
3 275 276 294
3 275 294 293
3 276 277 295
3 276 295 294
3 277 278 296
3 277 296 295
3 278 279 297
3 278 297 296
3 279 280 298
3 279 298 297
3 280 281 299
3 280 299 298
3 281 282 300
3 281 300 299
3 282 283 301
3 282 301 300
3 283 284 302
3 283 302 301
3 284 285 303
3 284 303 302
3 285 286 304
3 285 304 303
3 286 287 305
3 286 305 304
3 287 288 306
3 287 306 305
3 288 289 307
3 288 307 306
3 290 291 309
3 290 309 308
3 291 292 310
3 291 310 309
3 292 293 311
3 292 311 310
3 293 294 312
3 293 312 311
3 294 295 313
3 294 313 312
3 295 296 314
3 295 314 313
3 296 297 315
3 296 315 314
3 297 298 316
3 297 316 315
3 298 299 317
3 298 317 316
3 299 300 318
3 299 318 317
3 300 301 319
3 300 319 318
3 301 302 320
3 301 320 319
3 302 303 321
3 302 321 320
3 303 304 322
3 303 322 321
3 304 305 323
3 304 323 322
3 305 306 324
3 305 324 323
3 306 307 325
3 306 325 324
3 308 309 327
3 308 327 326
3 309 310 328
3 309 328 327
3 310 311 329
3 310 329 328
3 311 312 330
3 311 330 329
3 312 313 331
3 312 331 330
3 313 314 332
3 313 332 331
3 314 315 333
3 314 333 332
3 315 316 334
3 315 334 333
3 316 317 335
3 316 335 334
3 317 318 336
3 317 336 335
3 318 319 337
3 318 337 336
3 319 320 338
3 319 338 337
3 320 321 339
3 320 339 338
3 321 322 340
3 321 340 339
3 322 323 341
3 322 341 340
3 323 324 342
3 323 342 341
3 324 325 343
3 324 343 342
3 326 327 345
3 326 345 344
3 327 328 346
3 327 346 345
3 328 329 347
3 328 347 346
3 329 330 348
3 329 348 347
3 330 331 349
3 330 349 348
3 331 332 350
3 331 350 349
3 332 333 351
3 332 351 350
3 333 334 352
3 333 352 351
3 334 335 353
3 334 353 352
3 335 336 354
3 335 354 353
3 336 337 355
3 336 355 354
3 337 338 356
3 337 356 355
3 338 339 357
3 338 357 356
3 339 340 358
3 339 358 357
3 340 341 359
3 340 359 358
3 341 342 360
3 341 360 359
3 342 343 361
3 342 361 360
3 344 345 3
3 344 3 2
3 345 346 4
3 345 4 3
3 346 347 5
3 346 5 4
3 347 348 6
3 347 6 5
3 348 349 7
3 348 7 6
3 349 350 8
3 349 8 7
3 350 351 9
3 350 9 8
3 351 352 10
3 351 10 9
3 352 353 11
3 352 11 10
3 353 354 12
3 353 12 11
3 354 355 13
3 354 13 12
3 355 356 14
3 355 14 13
3 356 357 15
3 356 15 14
3 357 358 16
3 357 16 15
3 358 359 17
3 358 17 16
3 359 360 18
3 359 18 17
3 360 361 19
3 360 19 18
