ply
format ascii 1.0
comment VCGLIB generated
element vertex 12
property float x
property float y
property float z
element face 20
property list uchar int vertex_indices
end_header
0.1 -0.5 0 
0.1 0.5 0 
0.05 -0.5 0.0866025 
0.05 0.5 0.0866025 
-0.05 -0.5 0.0866025 
-0.05 0.5 0.0866025 
-0.1 -0.5 -4.10207e-11 
-0.1 0.5 -4.10207e-11 
-0.05 -0.5 -0.0866025 
-0.05 0.5 -0.0866025 
0.05 -0.5 -0.0866025 
0.05 0.5 -0.0866025 
3 0 1 3 
3 3 2 0 
3 2 3 5 
3 5 4 2 
3 4 5 7 
3 7 6 4 
3 6 7 9 
3 9 8 6 
3 8 9 11 
3 11 10 8 
3 10 11 1 
3 1 0 10 
3 0 2 4 
3 0 4 6 
3 0 6 8 
3 0 8 10 
3 1 11 9 
3 1 9 7 
3 1 7 5 
3 1 5 3 
